<svg xmlns="http://www.w3.org/2000/svg"><symbol viewBox="0 0 24.1 26.9" id="tm-svg-account"><title>account</title> <path fill="currentColor" d="M2.3,24.6c0.3-6.9,3.6-10.4,9.8-10.4s9.5,3.5,9.8,10.4H2.3z M7.3,7.1c0-2.7,2.2-4.8,4.8-4.8
	c2.7,0,4.8,2.2,4.8,4.8c0,2.7-2.2,4.8-4.8,4.8S7.3,9.7,7.3,7.1 M16.6,12.6c1.6-1.3,2.6-3.3,2.6-5.5C19.2,3.2,16,0,12.1,0
	S5,3.2,5,7.1c0,2.2,1,4.2,2.6,5.5C2.6,14.2,0,18.7,0,25.8c0,0.6,0.5,1.1,1.1,1.1H23l0,0c0.6,0,1.1-0.5,1.1-1.1c0-0.1,0-0.2,0-0.2
	C24.2,18.6,21.5,14.2,16.6,12.6"/> </symbol><symbol viewBox="194 232.4 1000 328.6" id="tm-svg-google"><title>google</title> <g> <path fill="#4885ed" id="google-path2998" class="st0" d="M440.1,348.6H323.5v34.6h82.7c-4.1,48.5-44.4,69.2-82.5,69.2c-48.7,0-91.3-38.3-91.3-92.1
		c0-52.4,40.5-92.7,91.4-92.7c39.2,0,62.3,25,62.3,25l24.2-25.1c0,0-31.1-34.6-87.8-34.6c-72.2,0-128,60.9-128,126.8
		c0,64.5,52.5,127.4,129.9,127.4c68,0,117.8-46.6,117.8-115.5C442.2,357,440.1,348.6,440.1,348.6L440.1,348.6z"/> <path fill="#db3236" id="google-path3000" class="st1" d="M535.6,323.6c-47.8,0-82.1,37.4-82.1,81c0,44.3,33.2,82.3,82.7,82.3c44.7,0,81.4-34.2,81.4-81.4
		C617.6,351.4,574.9,323.6,535.6,323.6L535.6,323.6z M536.1,355.7c23.5,0,45.8,19,45.8,49.7c0,30-22.2,49.6-45.9,49.6
		c-26.1,0-46.6-20.9-46.6-49.8C489.3,376.8,509.6,355.7,536.1,355.7L536.1,355.7z"/> <path fill="#f4c20d" id="google-path3005" class="st2" d="M714.2,323.6c-47.8,0-82.1,37.4-82.1,81c0,44.3,33.2,82.3,82.7,82.3c44.7,0,81.4-34.2,81.4-81.4
		C796.1,351.4,753.5,323.6,714.2,323.6L714.2,323.6z M714.7,355.7c23.5,0,45.8,19,45.8,49.7c0,30-22.2,49.6-45.9,49.6
		c-26.1,0-46.6-20.9-46.6-49.8C667.9,376.8,688.2,355.7,714.7,355.7L714.7,355.7z"/> <path fill="#4885ed" id="google-path3007" class="st0" d="M889.3,323.7c-43.9,0-78.4,38.5-78.4,81.6c0,49.2,40,81.8,77.7,81.8c23.3,0,35.7-9.2,44.8-19.8
		v16.1c0,28.2-17.1,45.1-42.9,45.1c-24.9,0-37.5-18.6-41.8-29.1l-31.4,13.1c11.1,23.5,33.6,48.1,73.5,48.1
		c43.7,0,76.9-27.5,76.9-85.2V328.6h-34.2v13.8C922.9,331.1,908.5,323.7,889.3,323.7L889.3,323.7z M892.5,355.7
		c21.5,0,43.6,18.4,43.6,49.8c0,31.9-22.1,49.5-44.1,49.5c-23.4,0-45.2-19-45.2-49.2C846.9,374.4,869.5,355.7,892.5,355.7
		L892.5,355.7z"/> <path fill="#db3236" id="google-path3011" class="st1" d="M1119.9,323.5c-41.4,0-76.2,33-76.2,81.6c0,51.4,38.8,82,80.2,82c34.6,0,55.8-18.9,68.4-35.8
		l-28.2-18.8c-7.3,11.4-19.6,22.5-40,22.5c-23,0-33.5-12.6-40.1-24.8l109.5-45.4l-5.7-13.3C1177.2,345.2,1152.6,323.5,1119.9,323.5
		L1119.9,323.5z M1121.3,354.9c14.9,0,25.7,7.9,30.2,17.4l-73.1,30.6C1075.2,379.2,1097.7,354.9,1121.3,354.9L1121.3,354.9z"/> <path fill="#3cba54" id="google-path3015" class="st3" d="M991.5,482.1h36V241.4h-36V482.1z"/> </g> </symbol><symbol viewBox="136.2 8.6 569.5 578.1" id="tm-svg-search"><title>search</title> <path fill="currentColor" d="M359.7,404c-96.7,0-174.1-77.4-174.1-174.1S263,55.9,359.7,55.9s174.1,77.4,174.1,174.1
	C533.8,326.7,456.4,404,359.7,404 M359.7,8.6c-122.5,0-223.5,98.9-223.5,221.3s98.9,223.5,223.5,223.5c49.4,0,96.7-17.2,133.2-45.1
	l171.9,171.9c4.3,4.3,10.7,6.4,17.2,6.4c6.4,0,12.9-2.1,17.2-6.4c8.6-8.6,8.6-25.8,0-34.4L529.5,376.1c32.2-38.7,53.7-90.3,53.7-144
	C581,107.5,482.2,8.6,359.7,8.6"/> </symbol><symbol viewBox="7.5 10.4 190.2 218.4" id="tm-svg-tlogo"><title>tlogo</title> <g> <path fill="#00519B" d="M134.9,107.3l-8.2,49.5c-1.6,8.8-7.6,11.6-12.7,11.6H75l16.5-90.7C75,70.1,58.5,65,44.8,65
		c-12.7,0-23.1,3.3-29.7,11.6c-5.4,6-7.6,13.2-7.6,21.4c0,25.8,20.3,61.5,54.9,90.7c30.8,25.8,64.9,40.1,90.2,40.1
		c12.7,0,22.5-3.8,29.1-11.6c4.9-6,7.1-13.2,7.1-22C188.2,171.1,168,135.9,134.9,107.3z"/> <g> <path fill="#FFFFFF" d="M65.1,11.1c-6.6,0-11.6,3.8-13.2,10.5l-5.4,29.7h48.9L74.6,167.8h39c4.9,0,11-2.2,12.7-11.6l18.1-105h35.2
			c6,0,11.6-4.4,12.7-10.5l5.4-30.3L65.1,11.1L65.1,11.1z"/> </g> </g> </symbol><symbol viewBox="0 0 805.8 218.4" id="tm-svg-tmedia-dark"><title>tmedia-dark</title> <g> <g> <path fill="#004D9D" d="M384.5,168.4c-4.4,0-8.8-2.8-8.8-8.2v-110L346,118.4c-1.6,4.4-5.4,6-9.4,6c-4.4,0-7.6-2.2-9.9-6
			l-30.2-68.2v110c0,5.4-4.4,8.2-8.8,8.2s-8.8-2.8-8.8-8.2V20.5c0-6,2.2-9.9,9.9-9.9h0.6c6,0,8.8,3.2,9.9,6.6l36.3,80.7l35.7-80.7
			c2.2-3.2,4.9-6.6,11-6.6h0.6c7.6,0,9.9,3.8,9.9,9.9v139.7C393.2,165.6,388.8,168.4,384.5,168.4z"/> <path fill="#004D9D" d="M505.4,167.3H435c-4.4,0-8.8-3.8-8.8-8.8v-138c0-4.4,3.8-8.8,8.8-8.8h70.4c6,0,8.8,4.4,8.8,8.8
			s-2.8,8.8-8.8,8.8h-62.1v49.5h42.8c5.4,0,8.8,4.4,8.8,8.8s-2.8,8.8-8.8,8.8h-42.8v54.5h62.1c6,0,8.8,4.4,8.8,8.8
			C513.6,163.4,511.4,167.3,505.4,167.3z"/> <path fill="#004D9D" d="M586.7,167.3h-36.3c-4.4,0-8.8-3.8-8.8-8.8v-138c0-4.4,3.8-8.8,8.8-8.8h36.3c23.6,0,42.3,19.2,42.3,42.3
			v70.4C629,148.6,610.4,167.3,586.7,167.3z M612.6,54.5c0-14.3-11-25.8-25.2-25.8h-28.1v121.5h28.1c14.3,0,25.8-11.6,25.8-25.8
			V54.6L612.6,54.5L612.6,54.5z"/> <path fill="#004D9D" d="M669.8,168.4c-4.4,0-8.8-2.8-8.8-8.2V19.4c0-5.4,4.4-8.8,8.8-8.8c4.4,0,8.8,2.8,8.8,8.8v141.3
			C677.9,165.6,673.6,168.4,669.8,168.4z"/> <path fill="#004D9D" d="M803.8,168.4c-3.2,0-6.6-1.6-8.2-6l-9.9-32.5h-55.5l-9.9,32.5c-1,4.4-4.4,6-7.6,6c-4.9,0-8.8-3.8-8.8-8.2
			c0-0.6,0-1.6,0.6-2.8l43.9-140.8c1-4.4,5.4-6,9.9-6c4.9,0,8.8,2.2,10.5,6l43.9,140.7c0,1,0.6,2.2,0.6,2.8
			C812.7,165.1,808.7,168.4,803.8,168.4z M757.7,41.4l-22.5,72h44.5L757.7,41.4z"/> </g> <path fill="#00B1EB" d="M134.9,107.3l-8.2,49.5c-1.6,8.8-7.6,11.6-12.7,11.6H75l16.5-90.7C75,70.1,58.5,65,44.8,65
		c-12.7,0-23.1,3.3-29.7,11.6c-5.4,6-7.6,13.2-7.6,21.4c0,25.8,20.3,61.5,54.9,90.7c30.8,25.8,64.9,40.1,90.2,40.1
		c12.7,0,22.5-3.8,29.1-11.6c4.9-6,7.1-13.2,7.1-22C188.2,171.1,168,135.9,134.9,107.3z"/> <g> <path fill="#004D9D" d="M65.1,11.1c-6.6,0-11.6,3.8-13.2,10.5l-5.4,29.7h48.9L74.6,167.8h39c4.9,0,11-2.2,12.7-11.6l18.1-105h35.2
			c6,0,11.6-4.4,12.7-10.5l5.4-30.3L65.1,11.1L65.1,11.1z"/> </g> </g> </symbol><symbol viewBox="77 287.6 765 218.4" id="tm-svg-tmedia"><title>tmedia</title> <g> <g> <path class="tmedia-text" d="M435.5,441.8c-4.1,0-8.1-2.6-8.1-7.6V332.8l-27.4,63c-1.5,4.1-5,5.5-8.7,5.5c-4.1,0-7-2-9.1-5.5l-27.9-63v101.5
			c0,5-4.1,7.6-8.1,7.6s-8.1-2.6-8.1-7.6v-129c0-5.5,2-9.1,9.1-9.1h0.6c5.5,0,8.1,3,9.1,6.1l33.5,74.5l33-74.5c2-3,4.5-6.1,10.2-6.1
			h0.6c7,0,9.1,3.5,9.1,9.1v129C443.5,439.3,439.5,441.8,435.5,441.8z"/> <path class="tmedia-text" d="M547.1,440.8h-65c-4.1,0-8.1-3.5-8.1-8.1V305.3c0-4.1,3.5-8.1,8.1-8.1h65c5.5,0,8.1,4.1,8.1,8.1c0,4.1-2.6,8.1-8.1,8.1
			h-57.3v45.7h39.5c5,0,8.1,4.1,8.1,8.1c0,4.1-2.6,8.1-8.1,8.1h-39.5v50.3h57.3c5.5,0,8.1,4.1,8.1,8.1
			C554.8,437.3,552.6,440.8,547.1,440.8z"/> <path class="tmedia-text" d="M622.1,440.8h-33.5c-4.1,0-8.1-3.5-8.1-8.1V305.3c0-4.1,3.5-8.1,8.1-8.1h33.5c21.8,0,39,17.7,39,39v65
			C661.3,423.6,644,440.8,622.1,440.8z M646.1,336.8c0-13.2-10.2-23.8-23.3-23.8h-25.9V425h25.9c13.2,0,23.8-10.7,23.8-23.8v-64.4
			L646.1,336.8L646.1,336.8z"/> <path class="tmedia-text" d="M699,441.8c-4.1,0-8.1-2.6-8.1-7.6v-130c0-5,4.1-8.1,8.1-8.1s8.1,2.6,8.1,8.1v130.4C706.3,439.3,702.5,441.8,699,441.8z"/> <path class="tmedia-text" d="M822.5,441.8c-3,0-6.1-1.5-7.6-5.5l-9.1-30h-51.2l-9.1,30c-0.9,4.1-4.1,5.5-7,5.5c-4.5,0-8.1-3.5-8.1-7.6
			c0-0.6,0-1.5,0.6-2.6l40.5-130c0.9-4.1,5-5.5,9.1-5.5c4.5,0,8.1,2,9.7,5.5l40.5,129.9c0,0.9,0.6,2,0.6,2.6
			C830.8,438.8,827.1,441.8,822.5,441.8z M780,324.6l-20.8,66.5h41.1L780,324.6z"/> </g> <path class="tmedia-text" d="M205.1,385.4l-7.6,45.7c-1.5,8.1-7,10.7-11.7,10.7h-36l15.2-83.7c-15.2-7-30.5-11.7-43.1-11.7c-11.7,0-21.3,3-27.4,10.7
		c-5,5.5-7,12.2-7,19.8c0,23.8,18.7,56.8,50.7,83.7c28.4,23.8,59.9,37,83.3,37c11.7,0,20.8-3.5,26.9-10.7c4.5-5.5,6.6-12.2,6.6-20.3
		C254.3,444.3,235.7,411.8,205.1,385.4z"/> <g> <path class="tmedia-text" d="M140.7,296.6c-6.1,0-10.7,3.5-12.2,9.7l-5,27.4h45.1l-19.2,107.5h36c4.5,0,10.2-2,11.7-10.7l16.7-96.9h32.5
			c5.5,0,10.7-4.1,11.7-9.7l5-28L140.7,296.6L140.7,296.6z"/> </g> </g> </symbol><symbol viewBox="-287 383.5 35.2 27.5" id="tm-svg-webmail"><title>webmail</title> <g> <path fill="currentColor" class="st0" d="M-251.9,386.5c0-0.1-0.1-0.2-0.1-0.3c0,0,0-0.1-0.1-0.1c0,0-0.1,0-0.1-0.1c-0.1-0.1-0.1-0.1-0.2-0.2
		c-0.1-0.1-0.1-0.1-0.2-0.1c-0.1,0-0.2-0.1-0.2-0.1c-0.1,0-0.2-0.1-0.3-0.1c0,0-0.1,0-0.1,0h-32.3c0,0-0.1,0-0.1,0
		c-0.1,0-0.2,0-0.3,0.1c-0.1,0-0.2,0.1-0.3,0.1c-0.1,0-0.1,0.1-0.2,0.1c-0.1,0.1-0.2,0.1-0.2,0.2c0,0-0.1,0-0.1,0.1
		c0,0,0,0.1-0.1,0.1c-0.1,0.1-0.1,0.2-0.1,0.3c0,0.1,0,0.2-0.1,0.3c0,0.1,0,0.1,0,0.2v20.3c0,0.8,0.6,1.4,1.4,1.4h32.3
		c0.8,0,1.4-0.6,1.4-1.4v-20.3c0-0.1,0-0.1,0-0.2C-251.8,386.7-251.9,386.6-251.9,386.5z M-269.4,397l-11.8-8.6h23.5L-269.4,397z
		 M-284.1,405.8v-16.1l13.9,10.1c0,0,0.1,0,0.1,0.1c0,0,0.1,0.1,0.1,0.1c0.2,0.1,0.4,0.1,0.6,0.1h0h0c0.2,0,0.4-0.1,0.6-0.1
		c0,0,0.1,0,0.1-0.1c0,0,0.1,0,0.1-0.1l13.9-10.1v16.1H-284.1z"/> </g> </symbol><symbol viewBox="108.3 10.7 626.2 575.9" id="tm-svg-webtab"><title>webtab</title> <path fill="#FFFFFF" d="M716.4,137.5c-19.3-19.3-49.4-23.6-90.3-12.9C596.1,86,559.6,55.9,514.4,36.5
	c-38.7-17.2-77.4-25.8-118.2-25.8c-159,0-288,128.9-288,288c0,36.5,8.6,73.1,21.5,109.6c-34.4,77.4-19.3,116,0,135.4
	c12.9,12.9,32.2,19.3,53.7,19.3c19.3,0,43-4.3,68.8-15c45.1,25.8,94.6,38.7,144,38.7c8.6,0,17.2,0,23.6-2.1
	C557.4,573.8,667,466.3,682.1,328.8C737.9,240.7,748.7,171.9,716.4,137.5z M664.9,165.5c6.4,0,15,0,19.3,6.4
	c6.4,6.4,8.6,30.1-6.4,66.6l0,0c-4.3-25.8-15-49.4-25.8-70.9l0,0C656.3,165.5,660.6,165.5,664.9,165.5z M162,507.2
	c-6.4-6.4-8.6-21.5-2.1-47.3v2.1c12.9,17.2,27.9,34.4,43,49.4l0,0C183.5,515.8,168.4,515.8,162,507.2z M636.9,318.1
	c-10.7,118.2-103.2,210.6-219.2,219.2c-51.6,4.3-105.3-8.6-150.4-36.5c0,0-2.1,0-2.1-2.1l0,0c-34.4-23.6-64.5-55.9-81.7-92.4
	c27.9-58,79.5-122.5,139.7-184.8c8.6-8.6,15-15,23.6-21.5v30.1c0,12.9,10.7,23.6,23.6,23.6s23.6-10.7,23.6-23.6v-86
	c0-12.9-10.7-23.6-23.6-23.6h-86c-12.9,0-23.6,10.7-23.6,23.6s10.7,23.6,23.6,23.6h30.1c-6.4,6.4-15,15-21.5,21.5
	c-51.6,51.6-96.7,107.5-128.9,159l0,0c-4.3-17.2-6.4-34.4-6.4-51.6c0-133.2,107.5-240.7,240.7-240.7c34.4,0,68.8,6.4,101,21.5
	s62.3,36.5,83.8,64.5l0,0c-60.2,27.9-131.1,79.5-195.6,144c-30.1,30.1-58,62.3-81.7,92.4v-27.9c0-12.9-10.7-23.6-23.6-23.6
	c-12.9,0-23.6,10.7-23.6,23.6v86c0,12.9,10.7,23.6,23.6,23.6h86c12.9,0,23.6-10.7,23.6-23.6s-10.7-23.6-23.6-23.6h-30.1
	c23.6-32.2,51.6-64.5,81.7-94.6c64.5-64.5,133.2-113.9,189.1-137.5c19.3,36.5,30.1,75.2,30.1,116
	C636.9,305.2,636.9,311.6,636.9,318.1z"/> </symbol></svg>